<svg xmlns="http://www.w3.org/2000/svg" fill="none" viewBox="0 0 64 64"><path fill="#FC823A" d="M33.108 50.955L16.774 38.822h-6.488v-24.6l10.701.046a7.232 7.232 0 0 1 4.583 1.686l.889.762 24.08 20.606-17.43 13.633z"/><path fill="#A33B04" d="M15.273 42.644a2.99 2.99 0 1 0 0-5.98 2.99 2.99 0 0 0 0 5.98z"/><path fill="#A33B04" d="M19.833 45.633a2.99 2.99 0 1 0 0-5.98 2.99 2.99 0 0 0 0 5.98z"/><path fill="#A33B04" d="M24.392 48.623a2.99 2.99 0 1 0 0-5.98 2.99 2.99 0 0 0 0 5.98z"/><path fill="#A33B04" d="M28.953 51.613a2.99 2.99 0 1 0 0-5.98 2.99 2.99 0 0 0 0 5.98z"/><path fill="#FC823A" d="M48.67 42.644a2.99 2.99 0 1 0 0-5.98 2.99 2.99 0 0 0 0 5.98z"/><path fill="#FC823A" d="M44.11 45.633a2.99 2.99 0 1 0 0-5.98 2.99 2.99 0 0 0 0 5.98z"/><path fill="#FC823A" d="M39.55 48.623a2.99 2.99 0 1 0 0-5.98 2.99 2.99 0 0 0 0 5.98z"/><path fill="#FC823A" d="M34.99 51.613a2.99 2.99 0 1 0 0-5.98 2.99 2.99 0 0 0 0 5.98z"/><path fill="#A33B04" d="M53.657 14.222H31.85a7.16 7.16 0 0 0-5.033 2.078l-7.538 7.504a1.434 1.434 0 0 0-.162 1.824l.173.254a5.382 5.382 0 0 0 6.857 1.685l5.322-2.736a4.65 4.65 0 0 1 5.16.612c4.433 3.798 13.565 11.625 13.9 11.89.496.404.83.924.992 1.49h2.113v-24.6h.023z"/><path fill="#002661" d="M57.801 43.856h-4.156V14.222h8.577v25.212a4.422 4.422 0 0 1-4.42 4.422z"/><path fill="#4F7F06" d="M10.355 43.856H6.2a4.422 4.422 0 0 1-4.421-4.422V14.222h8.577v29.634z"/><path fill="#fff" d="M57.94 40.496a1.674 1.674 0 1 0 0-3.347 1.674 1.674 0 0 0 0 3.347zM6.072 40.496a1.674 1.674 0 1 0 0-3.348 1.674 1.674 0 0 0 0 3.348z"/></svg>