<svg width="24" height="24" viewBox="0 0 24 24" fill="none" xmlns="http://www.w3.org/2000/svg">
  <title>Route (filled)</title>
  <g transform="matrix(
          1 0
          0 1
          1 1
        )"><path fill-rule="evenodd" clip-rule="evenodd" d="M 22 0 L 15 0 L 15 7 L 22 7 L 22 0 Z M 3.5 22 C 5.43310546875 22 7 20.4329833984375 7 18.5 C 7 16.5670166015625 5.43310546875 15 3.5 15 C 1.56689453125 15 0 16.5670166015625 0 18.5 C 0 20.4329833984375 1.56689453125 22 3.5 22 Z M 14.7412109375 18.986328125 C 15.95458984375 18.986328125 16.96630859375 17.981689453125 16.96630859375 16.7762451171875 L 16.96630859375 8.940673828125 L 20 8.940673828125 L 20 16.7762451171875 C 20 19.5889892578125 17.57275390625 22 14.7412109375 22 C 11.90966796875 22 9.48291015625 19.689453125 9.48291015625 16.7762451171875 L 9.48291015625 5.2237548828125 C 9.48291015625 4.0181884765625 8.4716796875 3.013671875 7.25830078125 3.013671875 C 6.044921875 3.013671875 5.03369140625 4.0181884765625 5.03369140625 5.2237548828125 L 5.03369140625 13.059326171875 L 2 13.059326171875 L 2 5.2237548828125 C 2 2.410888671875 4.4267578125 0 7.25830078125 0 C 10.08984375 0 12.51708984375 2.3104248046875 12.51708984375 5.2237548828125 L 12.51708984375 16.7762451171875 C 12.51708984375 17.981689453125 13.52783203125 18.986328125 14.7412109375 18.986328125 Z" fill="currentColor"/></g>
</svg>