<svg width="24" height="24" viewBox="0 0 24 24" fill="none" xmlns="http://www.w3.org/2000/svg">
  <title>Circle check (outlined)</title>
  <g transform="matrix(
          1 0
          0 1
          1 1
        )"><path fill-rule="evenodd" clip-rule="evenodd" d="M 0 11 C 0 4.9000244140625 4.9000244140625 0 11 0 C 17.0999755859375 0 22 4.9000244140625 22 11 C 22 17.0999755859375 17.0999755859375 22 11 22 C 4.9000244140625 22 0 17.0999755859375 0 11 Z M 3 11 C 3 15.4000244140625 6.5999755859375 19 11 19 C 15.4000244140625 19 19 15.4000244140625 19 11 C 19 6.5999755859375 15.4000244140625 3 11 3 C 6.5999755859375 3 3 6.5999755859375 3 11 Z M 9.4998779296875 11.9000244140625 L 14.89990234375 6.4000244140625 L 17.099853515625 8.60009765625 L 9.4998779296875 16.10009765625 L 4.89990234375 11.60009765625 L 7.099853515625 9.4000244140625 L 9.4998779296875 11.9000244140625 Z" fill="currentColor"/></g>
</svg>