<svg xmlns="http://www.w3.org/2000/svg" fill="none" viewBox="0 0 64 64"><path fill="#002661" d="M50.986 62.222H13.014c-1.296 0-2.347-1.064-2.347-2.376V10.329c0-1.312 1.051-2.376 2.347-2.376h37.972c1.296 0 2.347 1.064 2.347 2.376v49.517c0 1.312-1.051 2.376-2.347 2.376z"/><path fill="#fff" d="M13.59 59.262V10.906h36.82v39.227l-9.008 9.129H13.59z"/><path fill="#000" d="M42.344 7.877v5.255H22.13V7.877h1.988c.963 0 1.764-.68 2.028-1.62.726-2.59 3.073-4.48 5.854-4.48s5.128 1.89 5.854 4.48c.264.94 1.065 1.62 2.028 1.62h2.462z"/><path fill="#FC823A" d="M19.844 29.7c1.136 0 2.056-.933 2.056-2.082 0-1.15-.92-2.081-2.056-2.081-1.135 0-2.055.931-2.055 2.081s.92 2.081 2.055 2.081zM19.844 37.667c1.136 0 2.056-.932 2.056-2.081 0-1.15-.92-2.082-2.056-2.082-1.135 0-2.055.932-2.055 2.082 0 1.149.92 2.08 2.055 2.08zM19.844 45.627c1.136 0 2.056-.931 2.056-2.08 0-1.15-.92-2.082-2.056-2.082-1.135 0-2.055.932-2.055 2.081 0 1.15.92 2.081 2.055 2.081z"/><path fill="#fff" d="M32 7.877c.76 0 1.377-.624 1.377-1.394 0-.77-.617-1.394-1.377-1.394s-1.377.624-1.377 1.394c0 .77.617 1.394 1.377 1.394z"/><path fill="#068BEE" d="M41.402 50.133h9.008l-9.008 9.129v-9.129zM46.15 26.244H27.835v2.748H46.15v-2.748zM46.15 34.212H27.835v2.747H46.15v-2.747zM46.15 42.124H27.835v2.748H46.15v-2.748zM36.246 50.133H17.83v2.748h18.416v-2.748zM46.15 18.283H17.83v2.748h28.32v-2.748z"/></svg>