<svg xmlns="http://www.w3.org/2000/svg" fill="none" viewBox="0 0 64 64"><path fill="#000" d="M32 35.008v.007l11.43 3.67 18.792-13.398L32 35.007zM32 35.015l18.676 25.43-7.247-21.76L32 35.015z"/><path fill="#FC823A" d="M31.993 35.001l-7.06-9.618-23.155-.096 30.215 9.72v-.006z"/><path fill="#FC823A" d="M31.993 3.562l-7.06 21.82 7.06 9.62V3.561zM31.993 35.015l-11.436 3.67-7.24 21.76 18.676-25.423v-.007z"/><path fill="#A33B04" d="M31.993 35.008l-30.215-9.72 18.779 13.397 11.436-3.67v-.007zM62.222 25.287L32 35.007l-.007-.006V3.556l7.068 21.833 23.161-.102zM50.676 60.444l-.309-.21L31.993 46.91 13.324 60.444l18.67-25.423.006-.013 18.676 25.436z"/></svg>