<svg width="36" height="36" viewBox="0 0 36 36" fill="none" xmlns="http://www.w3.org/2000/svg">
<path d="M3.98485 23.9136L7.01515 27.0425V22.2526V15.6085H3.98485V23.9136Z" fill="#276EF1"/>
<path d="M32.0152 23.9136L28.947 27.0425V22.2526V15.6085H32.0152V23.9136Z" fill="#276EF1"/>
<path d="M10.197 28.5491H8.56818C7.73484 28.5491 7.01559 27.8537 7.01559 27.0039V15.6085H10.197C11.0303 15.6085 11.7121 16.3038 11.7121 17.1537V27.0039C11.7121 27.8537 11.0303 28.5491 10.197 28.5491Z" fill="black"/>
<path d="M3.98485 23.9136V18.4283C3.45455 18.4283 3 18.8919 3 19.4327V22.9092L3.98485 23.9136Z" fill="black"/>
<path d="M17.8106 4.0972C14.1364 4.17445 10.8788 6.06725 8.94698 9.00301L8.98485 9.04164C9.81819 9.85284 11.1061 9.89147 11.9394 9.04164C13.4546 7.4965 15.5379 6.49216 17.8485 6.45353H18C20.4242 6.45353 22.6212 7.53513 24.2121 9.27341C25.0076 10.1619 26.3712 10.1619 27.2046 9.31204C25.197 6.18314 21.7121 4.05857 17.8106 4.0972Z" fill="black"/>
<path d="M25.803 28.5491H27.4318C28.2651 28.5491 28.947 27.8537 28.947 27.0039V15.6085H25.803C24.9697 15.6085 24.2879 16.3038 24.2879 17.1537V27.0039C24.2879 27.8537 24.9697 28.5491 25.803 28.5491Z" fill="black"/>
<path d="M32.0152 23.9136V18.4283C32.5455 18.4283 33 18.8919 33 19.4327V22.9092L32.0152 23.9136Z" fill="black"/>
<path d="M18.1136 34.9999C19.3479 34.9999 20.3485 33.9796 20.3485 32.7209C20.3485 31.4622 19.3479 30.4418 18.1136 30.4418C16.8794 30.4418 15.8788 31.4622 15.8788 32.7209C15.8788 33.9796 16.8794 34.9999 18.1136 34.9999Z" fill="black"/>
<path d="M29.4394 7.07162C26.8258 3.28603 22.4697 0.852438 17.5833 1.00695C13.1515 1.16147 9.28788 3.44055 6.82576 6.83985C5.04545 9.31207 3.98485 12.3637 3.98485 15.6085H7.01515V15.2995C7.01515 12.9818 7.69697 10.8186 8.90909 9.00304C10.8788 6.10591 14.1364 4.17449 17.8106 4.09723C21.7121 4.01997 25.197 6.18317 27.1667 9.3507C28.303 11.1276 28.9489 13.3578 28.9489 15.5982H32.0156V15.2995C32.0535 12.2092 31.0682 9.38933 29.4394 7.07162Z" fill="#9FBFF8"/>
<path d="M29.0985 26.888V27.9696C29.0985 30.1715 27.3182 31.987 25.1591 31.987H20.2348C20.3106 32.2188 20.3864 32.4892 20.3864 32.7596C20.3864 33.03 20.3485 33.3004 20.2348 33.5321H25.197C28.1894 33.5321 30.6515 31.0213 30.6515 27.9696V25.3429L29.0985 26.888Z" fill="#9FBFF8"/>
</svg>
