<svg xmlns="http://www.w3.org/2000/svg" xmlns:xlink="http://www.w3.org/1999/xlink" id="Layer_1" x="0" y="0" version="1.1" viewBox="0 0 437.4 141.3" xml:space="preserve"><style>.st0{fill:#fff}</style><g id="Artwork"><path d="M26.2 51.7c8.1 0 14.4-6.3 14.4-15.6V0h8.8v58.6h-8.7v-5.4c-4.1 4.2-9.6 6.5-15.5 6.4C12.6 59.6 3 50.5 3 36.7V0h8.8v36.1c.1 9.5 6.2 15.6 14.4 15.6M56 0h8.4v21.3c4-4.1 9.4-6.4 15.1-6.3 12.3-.3 22.5 9.5 22.8 21.8.3 12.3-9.5 22.5-21.8 22.8h-.9c-5.7 0-11.2-2.3-15.2-6.4v5.3H56V0zm23 52.1c8.2 0 14.8-6.6 14.8-14.8 0-8.2-6.6-14.8-14.8-14.8s-14.8 6.6-14.8 14.8c0 8.2 6.6 14.8 14.8 14.8-.1 0 0 0 0 0M127.2 15.1c12.3 0 21.3 9.4 21.3 22.2V40h-34.7c1.1 7 7.1 12.1 14.2 12.1 4.9.1 9.5-2.3 12.3-6.3l6.1 4.5c-4.3 5.8-11.2 9.2-18.4 9.1-12.8 0-22.7-9.5-22.7-22.2-.1-12.1 9.6-22 21.7-22.2.1.1.2.1.2.1M114 33.3h26c-1.4-6.5-6.7-10.9-13-10.9s-11.5 4.4-13 10.9M171.2 23.4c-5.5 0-9.5 4.3-9.5 10.9v24.3h-8.4V15.9h8.4v5.3c2.1-3.6 6-5.7 10.2-5.6h2.9v7.9h-3.6zM0 97.7h8.2v-8.2c0-5.8 3.6-10 10.3-10h7.2V87h-5.8c-2 0-3.3 1.2-3.3 3.5v7.2h9v7.4h-9v35.2H8.2v-35.2H0v-7.4zM50.3 141.3c-12.7 0-22.9-10-22.9-22.3s10.2-22.3 22.9-22.3 22.9 10 22.9 22.3-10.2 22.3-22.9 22.3zm0-37.1c-8.2-.2-14.9 6.3-15.1 14.5s6.3 14.9 14.5 15.1 14.9-6.3 15.1-14.5v-.3c.1-8-6.3-14.6-14.3-14.8h-.2zM97.8 105.2c-5.5 0-9.5 4.3-9.5 10.9v24.3h-8.4V97.6h8.4v5.3c2.1-3.6 6-5.7 10.2-5.6h2.9v7.9h-3.6zM124.5 81.7H146c9.6 0 17.1 6.8 17.1 15.3-.1 5-2.8 9.6-7.2 12 6.6 2.2 11.1 7.9 11.1 14.7 0 9.2-7.7 16.6-17.7 16.6h-24.8V81.7zm8.8 7.5v17.2h12c4.7 0 8.6-3.8 8.6-8.6s-3.8-8.6-8.6-8.6h-12zm24.8 34c0-5.3-4.1-9.5-10-9.5h-14.8v19.2h14.8c5.3.2 9.7-3.9 10-9.2v-.5zM173.3 97.6h8.4v25.7c0 5.9 4 10.4 10 10.4s10.5-4.4 10.5-10.7V97.6h8.4v42.7h-8.4v-4.8c-3.1 3.6-7.7 5.7-12.6 5.6-9.8 0-16.4-7.1-16.4-16.2l.1-27.3zM216.4 127.1h8.1c1 4.9 5.2 7.4 10.5 7.4 4.6 0 7.4-2.2 7.4-5.4 0-2.6-1.8-4.4-5.9-5.5l-7.9-1.9c-7.6-1.9-11.6-5.9-11.6-12 0-7.8 6.3-12.8 14.9-12.8 10 0 16.5 6.1 17.7 14.2h-8.1c-1-4.9-5.3-7.4-9.6-7.4-4.1 0-6.5 2.2-6.5 5.2 0 2.7 2.1 4.5 6.1 5.5l7.4 1.9c7.9 2 11.8 6.1 11.8 12.2 0 7.4-6.1 12.9-15.6 12.9-10.5-.2-17.2-6.2-18.7-14.3zM255.7 86.6c0-2.8 2.3-5 5.1-5 2.8.1 5 2.5 4.8 5.3-.1 2.6-2.2 4.7-4.8 4.8-2.8 0-5.1-2.2-5.1-5.1zm9.3 53.7h-8.5V97.6h8.5v42.7zM310.6 140.3h-8.5v-25.6c0-6.2-4-10.4-10-10.4s-10.5 4.3-10.5 10.7v25.4h-8.5V97.6h8.5v4.7c3.2-3.6 7.7-5.7 12.6-5.6 9.8 0 16.4 7.2 16.4 16.3v27.3zM339.1 96.8c12.3 0 21.4 9.5 21.4 22.2v2.8h-34.7c1.1 7 7.1 12.1 14.1 12.1 4.9.1 9.5-2.3 12.3-6.3l6.1 4.5c-4.3 5.8-11.2 9.3-18.4 9.1-12.8 0-22.7-9.6-22.7-22.3-.1-12.1 9.6-22 21.7-22.2.1.1.2.1.2.1zM325.9 115h26c-1.4-6.5-6.7-10.9-13-10.9s-11.5 4.4-13 10.9zM364.9 127.1h8.1c1 4.9 5.2 7.4 10.5 7.4 4.6 0 7.5-2.2 7.5-5.4 0-2.6-1.8-4.4-5.9-5.5l-7.9-1.9c-7.6-1.9-11.5-5.9-11.5-12 0-7.8 6.3-12.8 14.9-12.8 10 0 16.5 6.1 17.6 14.2h-8.1c-1-4.9-5.3-7.4-9.6-7.4-4.1 0-6.5 2.2-6.5 5.2 0 2.7 2.1 4.5 6.1 5.5l7.4 1.9c7.9 2 11.8 6.1 11.8 12.2 0 7.4-6.1 12.9-15.6 12.9-10.5-.2-17.3-6.2-18.8-14.3zM403.1 127.1h8.1c1 4.9 5.2 7.4 10.5 7.4 4.6 0 7.5-2.2 7.5-5.4 0-2.6-1.8-4.4-5.9-5.5l-7.9-1.9c-7.6-1.9-11.5-5.9-11.5-12 0-7.8 6.3-12.8 14.9-12.8 10 0 16.5 6.1 17.7 14.2h-8.1c-1-4.9-5.3-7.4-9.6-7.4-4.1 0-6.5 2.2-6.5 5.2 0 2.7 2.1 4.5 6.1 5.5l7.4 1.9c7.9 2 11.8 6.1 11.8 12.2 0 7.4-6.1 12.9-15.6 12.9-10.6-.2-17.4-6.2-18.9-14.3z" class="st0"/></g></svg>